<svg xmlns="http://www.w3.org/2000/svg" viewBox="0 0 100 100"><title>Healing Area</title><rect x="2" y="2" width="96" height="96" rx="14" fill="#2b211b"/><g transform="translate(10 10) scale(.8)"><g fill="#ecd9b2" color="#ecd9b2"><g transform="translate(14 0) scale(.72)"><path d="M42 6h16v8h-2v18c12 4 18 14 18 26v28a8 8 0 0 1-8 8H32a8 8 0 0 1-8-8V58c0-12 6-22 18-26V14h-2z" fill-rule="nonzero"/></g><path d="M6 84c14 10 74 10 88 0" fill="none" stroke="currentColor" stroke-width="6" stroke-linecap="round" stroke-linejoin="round"/><path d="M62 54h8v8h8v8h-8v8h-8v-8h-8v-8h8z" fill-rule="nonzero"/></g></g></svg>
