<svg xmlns="http://www.w3.org/2000/svg" viewBox="0 0 100 100"><title>Quad Cylinder</title><rect x="2" y="2" width="96" height="96" rx="14" fill="#2b211b"/><g transform="translate(10 10) scale(.8)"><g fill="#ecd9b2" color="#ecd9b2"><g transform="rotate(-12 50 50)"><path d="M30 30h50v14H30z" fill-rule="nonzero"/><path d="M18 30h24v20H26l-4 6-6-2z" fill-rule="nonzero"/><circle cx="36" cy="42" r="17"/><path d="M18 48h16l-6 34a6 6 0 0 1-6 6h-6a6 6 0 0 1-6-6z" fill-rule="nonzero"/><path d="M32 54c0 8 4 12 10 12" fill="none" stroke="currentColor" stroke-width="5" stroke-linecap="round" stroke-linejoin="round"/><path d="M16 24h8v8h-8z" fill-rule="nonzero"/><path d="M30 44h50v4H30z" fill-rule="nonzero"/><circle fill="#000" fill-opacity=".45" cx="44.5" cy="42.0" r="3.2"/><circle fill="#000" fill-opacity=".45" cx="36.0" cy="50.5" r="3.2"/><circle fill="#000" fill-opacity=".45" cx="27.5" cy="42.0" r="3.2"/><circle fill="#000" fill-opacity=".45" cx="36.0" cy="33.5" r="3.2"/></g></g></g></svg>
