<svg xmlns="http://www.w3.org/2000/svg" viewBox="0 0 100 140"><title>EXTRA DASH</title><rect x="2" y="2" width="96" height="136" rx="10" fill="#c9821a"/><rect x="8" y="8" width="84" height="124" rx="6" fill="none" stroke="#000" stroke-opacity=".25" stroke-width="2"/><circle cx="32.0" cy="18" r="3.2" fill="#fff"/><circle cx="41.0" cy="18" r="3.2" fill="#fff"/><circle cx="50.0" cy="18" r="3.2" fill="#fff"/><circle cx="59.0" cy="18" r="3.2" fill="#fff"/><circle cx="68.0" cy="18" r="3.2" fill="#fff"/><g transform="translate(18 44) scale(.64)"><g fill="#fff" color="#fff"><g transform="translate(4 10) scale(.82)"><path d="M4 28h40v10H4zM12 46h40v10H12zM4 64h40v10H4z" fill-rule="nonzero"/><path d="M56 14 96 50 56 86z" fill-rule="nonzero"/></g><g transform="translate(62 0) scale(.38)"><circle cx="50" cy="50" r="50" fill="#000" fill-opacity=".28"/><g transform="translate(15 15) scale(.7)"><path d="M38 8h24v30h30v24H62v30H38V62H8V38h30z" fill-rule="nonzero"/></g></g></g></g></svg>
