<svg xmlns="http://www.w3.org/2000/svg" viewBox="0 0 100 140"><title>MINDSHOT</title><rect x="2" y="2" width="96" height="136" rx="10" fill="#a3232e"/><rect x="8" y="8" width="84" height="124" rx="6" fill="none" stroke="#000" stroke-opacity=".25" stroke-width="2"/><circle cx="27.5" cy="18" r="3.2" fill="#fff"/><circle cx="36.5" cy="18" r="3.2" fill="#fff"/><circle cx="45.5" cy="18" r="3.2" fill="#fff"/><circle cx="54.5" cy="18" r="3.2" fill="#fff"/><circle cx="63.5" cy="18" r="3.2" fill="#fff"/><circle cx="72.5" cy="18" r="3.2" fill="#fff"/><g transform="translate(18 44) scale(.64)"><g fill="#fff" color="#fff"><g transform="translate(4 10) scale(.82)"><circle cx="50" cy="50" r="30" fill="none" stroke="currentColor" stroke-width="9"/><path d="M45 4h10v26H45zM45 70h10v26H45zM4 45h26v10H4zM70 45h26v10H70z" fill-rule="nonzero"/><circle cx="50" cy="50" r="7"/></g><g transform="translate(62 0) scale(.38)"><circle cx="50" cy="50" r="50" fill="#000" fill-opacity=".28"/><g transform="translate(15 15) scale(.7)"><circle cx="44" cy="58" r="34"/><path d="M64 30c6-10 14-14 22-12" fill="none" stroke="currentColor" stroke-width="7" stroke-linecap="round" stroke-linejoin="round"/><polygon points="88.0,4.0 90.4,10.8 97.5,10.9 91.8,15.2 93.9,22.1 88.0,18.0 82.1,22.1 84.2,15.2 78.5,10.9 85.6,10.8"/></g></g></g></g></svg>
