<svg xmlns="http://www.w3.org/2000/svg" viewBox="0 0 100 140"><title>FOCUS SHOT</title><rect x="2" y="2" width="96" height="136" rx="10" fill="#a3232e"/><rect x="8" y="8" width="84" height="124" rx="6" fill="none" stroke="#000" stroke-opacity=".25" stroke-width="2"/><circle cx="32.0" cy="18" r="3.2" fill="#fff"/><circle cx="41.0" cy="18" r="3.2" fill="#fff"/><circle cx="50.0" cy="18" r="3.2" fill="#fff"/><circle cx="59.0" cy="18" r="3.2" fill="#fff"/><circle cx="68.0" cy="18" r="3.2" fill="#fff"/><g transform="translate(18 44) scale(.64)"><g fill="#fff" color="#fff"><g transform="translate(4 10) scale(.82)"><circle cx="50" cy="50" r="30" fill="none" stroke="currentColor" stroke-width="9"/><path d="M45 4h10v26H45zM45 70h10v26H45zM4 45h26v10H4zM70 45h26v10H70z" fill-rule="nonzero"/><circle cx="50" cy="50" r="7"/></g><g transform="translate(62 0) scale(.38)"><circle cx="50" cy="50" r="50" fill="#000" fill-opacity=".28"/><g transform="translate(15 15) scale(.7)"><path d="M22 6h56v10c0 20-20 28-20 34s20 14 20 34v10H22V84c0-20 20-28 20-34S22 36 22 16zM32 16c0 14 18 22 18 30 0-8 18-16 18-30z" fill-rule="evenodd"/></g></g></g></g></svg>
